# xmcd
#
# Track frame offsets:
# 150
# 19875
# 39600
# 59688
# 75505
# 102248
# 125855
# 147323
# 166738
# 188656
# 216916
# 236318
#
# Disc length: 3298 seconds
#
#
# Revision: 1
# Processed by: cddbd v1.4PL0 Copyright (c) Steve Scherf et al.
# Submitted via: FreeRIP 2.51 
#
DISCID=a50ce00c
DTITLE=Mike Silver - Solid Silver
DYEAR=2003
DGENRE=Bluegrass
TTITLE0=Not A Matter Of Pride
TTITLE1=Reaching Out For Love
TTITLE2=Old Fashioned Saturday Night
TTITLE3=Love's Another Colour
TTITLE4=Leaving Song
TTITLE5=Sepia Sunset
TTITLE6=Army and Navy
TTITLE7=Southern Hemisphere
TTITLE8=Angel In Deep Shadow
TTITLE9=Elaina
TTITLE10=Let It Be So
TTITLE11=Nothing To Do With Me
EXTD=Stockfisch Records
EXTT0=
EXTT1=
EXTT2=
EXTT3=
EXTT4=
EXTT5=
EXTT6=
EXTT7=
EXTT8=
EXTT9=
EXTT10=
EXTT11=
PLAYORDER=
